<?xml version="1.0" standalone="no"?>
<!DOCTYPE svg PUBLIC "-//W3C//DTD SVG 20010904//EN"
 "http://www.w3.org/TR/2001/REC-SVG-20010904/DTD/svg10.dtd">
<svg version="1.0" xmlns="http://www.w3.org/2000/svg"
 width="193.000000pt" height="193.000000pt" viewBox="0 0 193.000000 193.000000"
 preserveAspectRatio="xMidYMid meet">
<metadata>
Created by potrace 1.11, written by Peter Selinger 2001-2013
</metadata>
<g transform="translate(0.000000,193.000000) scale(0.100000,-0.100000)"
fill="#000000" stroke="none">
<path d="M951 1853 c-7 -13 -5 -23 6 -35 14 -16 14 -18 -8 -27 -21 -8 -22 -10
-6 -16 26 -11 20 -33 -10 -37 l-28 -4 28 -12 c37 -16 34 -32 -7 -32 -19 0 -37
-4 -41 -9 -3 -5 -27 -17 -54 -26 -60 -19 -174 -98 -220 -151 -124 -140 -167
-333 -115 -506 4 -12 0 -18 -10 -18 -12 0 -5 -15 24 -57 92 -130 93 -133 75
-153 -9 -9 -18 -34 -22 -53 -5 -31 -1 -40 26 -67 17 -17 31 -33 31 -35 0 -12
-56 -57 -88 -71 -45 -19 -141 -14 -192 11 -38 18 -77 67 -80 100 -5 45 2 64
49 135 76 117 87 203 32 252 -34 30 -40 32 -146 29 -89 -2 -117 13 -95 53 19
37 1 53 -28 26 -23 -22 -28 -59 -12 -90 13 -24 69 -42 139 -45 68 -2 97 -11
105 -31 9 -24 -29 -101 -80 -161 -86 -100 -92 -204 -19 -304 83 -112 276 -154
420 -90 51 23 130 97 151 144 15 31 15 30 9 -34 -10 -126 -64 -238 -136 -286
-51 -34 -92 -43 -190 -44 -156 -1 -290 35 -351 96 -44 42 -54 87 -34 147 13
36 13 45 2 57 -19 18 -34 6 -57 -43 -53 -116 7 -235 153 -304 75 -36 124 -50
233 -67 145 -24 237 -9 332 55 109 72 187 219 209 390 7 60 13 80 25 80 5 0 9
-12 10 -27 3 -139 61 -301 136 -384 82 -91 177 -131 303 -129 41 0 82 2 90 4
8 1 38 6 65 11 28 4 81 19 120 33 161 57 238 141 231 249 -5 60 -34 123 -57
123 -26 0 -30 -14 -16 -56 7 -22 12 -45 11 -51 -1 -7 -2 -24 -3 -37 -3 -56
-107 -122 -229 -144 -79 -14 -226 -15 -274 -1 -121 35 -197 149 -214 320 l-6
64 30 -45 c42 -65 80 -100 142 -129 47 -22 68 -26 150 -26 81 0 103 4 152 27
76 35 131 94 152 163 28 87 9 160 -61 239 -36 39 -72 109 -73 137 0 29 27 40
107 43 108 4 153 29 153 86 0 28 -34 64 -54 57 -16 -6 -16 -8 1 -33 16 -25 16
-27 -2 -40 -17 -12 -71 -20 -100 -14 -33 6 -97 -1 -122 -14 -77 -39 -62 -182
30 -292 88 -104 -11 -238 -168 -230 -68 4 -107 20 -144 60 l-24 25 32 30 c38
35 43 89 11 121 l-20 20 22 33 c13 17 25 34 28 37 25 25 78 115 70 120 -6 4
-5 33 4 81 32 171 -16 339 -132 463 -47 49 -164 127 -220 145 -23 8 -42 18
-42 23 0 4 -16 8 -35 8 -24 0 -35 5 -35 15 0 8 9 15 20 15 11 0 20 5 20 10 0
6 -9 10 -20 10 -25 0 -26 25 -2 35 15 6 14 8 -6 16 -22 8 -22 10 -8 31 11 16
13 25 4 35 -15 18 -35 16 -47 -4z"/>
</g>
</svg>
